<svg xmlns="http://www.w3.org/2000/svg" style="display:none;">
  <!-- Strategic Messaging Icon -->
  <symbol id="icon-messaging" viewBox="0 0 24 24" fill="none" stroke="#a30069" stroke-width="2" stroke-linecap="round" stroke-linejoin="round">
    <path d="M21 15a2 2 0 0 1-2 2H7l-4 4V5a2 2 0 0 1 2-2h14a2 2 0 0 1 2 2z"/>
    <path d="M10 8l4 4-4 4"/>
  </symbol>

  <!-- Crisis Management Icon -->
  <symbol id="icon-crisis" viewBox="0 0 24 24" fill="none" stroke="#a30069" stroke-width="2" stroke-linecap="round" stroke-linejoin="round">
    <path d="M10.29 3.86L1.82 18a2 2 0 0 0 1.71 3h16.94a2 2 0 0 0 1.71-3L13.71 3.86a2 2 0 0 0-3.42 0z"/>
    <line x1="12" y1="9" x2="12" y2="13"/>
    <line x1="12" y1="17" x2="12.01" y2="17"/>
  </symbol>

  <!-- Tech for Good Icon -->
  <symbol id="icon-tech" viewBox="0 0 24 24" fill="none" stroke="#a30069" stroke-width="2" stroke-linecap="round" stroke-linejoin="round">
    <rect x="4" y="4" width="16" height="16" rx="2" ry="2"/>
    <rect x="9" y="9" width="6" height="6"/>
    <line x1="9" y1="1" x2="9" y2="4"/>
    <line x1="15" y1="1" x2="15" y2="4"/>
    <line x1="9" y1="20" x2="9" y2="23"/>
    <line x1="15" y1="20" x2="15" y2="23"/>
    <line x1="20" y1="9" x2="23" y2="9"/>
    <line x1="20" y1="14" x2="23" y2="14"/>
    <line x1="1" y1="9" x2="4" y2="9"/>
    <line x1="1" y1="14" x2="4" y2="14"/>
  </symbol>

  <!-- Indigenous Partnership Icon -->
  <symbol id="icon-indigenous" viewBox="0 0 24 24" fill="none" stroke="#a30069" stroke-width="2" stroke-linecap="round" stroke-linejoin="round">
    <path d="M12 2l10 6.5v7L12 22 2 15.5v-7L12 2z"/>
    <path d="M12 22v-9.5"/>
    <path d="M22 8.5l-10 7-10-7"/>
    <path d="M2 15.5l10-7 10 7"/>
    <path d="M12 2v4.5"/>
  </symbol>

  <!-- Training & Organizing Icon -->
  <symbol id="icon-training" viewBox="0 0 24 24" fill="none" stroke="#a30069" stroke-width="2" stroke-linecap="round" stroke-linejoin="round">
    <path d="M16 21v-2a4 4 0 0 0-4-4H5a4 4 0 0 0-4 4v2"/>
    <circle cx="8.5" cy="7" r="4"/>
    <polyline points="17 11 19 13 23 9"/>
  </symbol>

  <!-- Elections Icon -->
  <symbol id="icon-elections" viewBox="0 0 24 24" fill="none" stroke="#a30069" stroke-width="2" stroke-linecap="round" stroke-linejoin="round">
    <path d="M22 11.08V12a10 10 0 1 1-5.93-9.14"/>
    <polyline points="22 4 12 14.01 9 11.01"/>
  </symbol>

  <!-- Climate Action Icon -->
  <symbol id="icon-climate" viewBox="0 0 24 24" fill="none" stroke="#a30069" stroke-width="2" stroke-linecap="round" stroke-linejoin="round">
    <path d="M12 3v2.5"/>
    <path d="M12 20.5V23"/>
    <path d="M4.9 4.9l1.4 1.4"/>
    <path d="M18.4 18.4l1.4 1.4"/>
    <path d="M2 12h2.5"/>
    <path d="M19.5 12H22"/>
    <path d="M4.9 19.1l1.4-1.4"/>
    <path d="M18.4 5.6l1.4-1.4"/>
    <circle cx="12" cy="12" r="7"/>
    <path d="M12 9v6"/>
    <path d="M12 12l3-3"/>
  </symbol>
</svg>